<svg xmlns="http://www.w3.org/2000/svg">
        <symbol id="twitter" viewBox="0 0 56.693 56.693">
            <g><path d="M52.837,15.065c-1.811,0.805-3.76,1.348-5.805,1.591c2.088-1.25,3.689-3.23,4.444-5.592c-1.953,1.159-4.115,2-6.418,2.454  c-1.843-1.964-4.47-3.192-7.377-3.192c-5.581,0-10.106,4.525-10.106,10.107c0,0.791,0.089,1.562,0.262,2.303  c-8.4-0.422-15.848-4.445-20.833-10.56c-0.87,1.492-1.368,3.228-1.368,5.082c0,3.506,1.784,6.6,4.496,8.412  c-1.656-0.053-3.215-0.508-4.578-1.265c-0.001,0.042-0.001,0.085-0.001,0.128c0,4.896,3.484,8.98,8.108,9.91  c-0.848,0.23-1.741,0.354-2.663,0.354c-0.652,0-1.285-0.063-1.902-0.182c1.287,4.015,5.019,6.938,9.441,7.019  c-3.459,2.711-7.816,4.327-12.552,4.327c-0.815,0-1.62-0.048-2.411-0.142c4.474,2.869,9.786,4.541,15.493,4.541  c18.591,0,28.756-15.4,28.756-28.756c0-0.438-0.009-0.875-0.028-1.309C49.769,18.873,51.483,17.092,52.837,15.065z"/></g>
        </symbol>
        <symbol id="fb" viewBox="0 0 310 310">
            <g><path id="XMLID_835_" d="M81.703,165.106h33.981V305c0,2.762,2.238,5,5,5h57.616c2.762,0,5-2.238,5-5V165.765h39.064
		c2.54,0,4.677-1.906,4.967-4.429l5.933-51.502c0.163-1.417-0.286-2.836-1.234-3.899c-0.949-1.064-2.307-1.673-3.732-1.673h-44.996
		V71.978c0-9.732,5.24-14.667,15.576-14.667c1.473,0,29.42,0,29.42,0c2.762,0,5-2.239,5-5V5.037c0-2.762-2.238-5-5-5h-40.545
		C187.467,0.023,186.832,0,185.896,0c-7.035,0-31.488,1.381-50.804,19.151c-21.402,19.692-18.427,43.27-17.716,47.358v37.752H81.703
		c-2.762,0-5,2.238-5,5v50.844C76.703,162.867,78.941,165.106,81.703,165.106z"/></g>
        </symbol>
        <symbol id="vk" viewBox="0 0 576 512">
            <g><path d="M545 117.7c3.7-12.5 0-21.7-17.8-21.7h-58.9c-15 0-21.9 7.9-25.6 16.7 0 0-30 73.1-72.4 120.5-13.7 13.7-20 18.1-27.5 18.1-3.7 0-9.4-4.4-9.4-16.9V117.7c0-15-4.2-21.7-16.6-21.7h-92.6c-9.4 0-15 7-15 13.5 0 14.2 21.2 17.5 23.4 57.5v86.8c0 19-3.4 22.5-10.9 22.5-20 0-68.6-73.4-97.4-157.4-5.8-16.3-11.5-22.9-26.6-22.9H38.8c-16.8 0-20.2 7.9-20.2 16.7 0 15.6 20 93.1 93.1 195.5C160.4 378.1 229 416 291.4 416c37.5 0 42.1-8.4 42.1-22.9 0-66.8-3.4-73.1 15.4-73.1 8.7 0 23.7 4.4 58.7 38.1 40 40 46.6 57.9 69 57.9h58.9c16.8 0 25.3-8.4 20.4-25-11.2-34.9-86.9-106.7-90.3-111.5-8.7-11.2-6.2-16.2 0-26.2.1-.1 72-101.3 79.4-135.6z"/></g>
        </symbol>
        <symbol id="pin" viewBox="0 0 512 512">
            <g><path d="M255.998,0.001c-141.384,0 -255.998,114.617 -255.998,255.998c0,108.456 67.475,201.171 162.707,238.471c-2.24,-20.255 -4.261,-51.405 0.889,-73.518c4.65,-19.978 30.018,-127.248 30.018,-127.248c0,0 -7.659,-15.334 -7.659,-38.008c0,-35.596 20.632,-62.171 46.323,-62.171c21.839,0 32.391,16.399 32.391,36.061c0,21.966 -13.984,54.803 -21.203,85.235c-6.03,25.482 12.779,46.261 37.909,46.261c45.503,0 80.477,-47.976 80.477,-117.229c0,-61.293 -44.045,-104.149 -106.932,-104.149c-72.841,0 -115.597,54.634 -115.597,111.095c0,22.004 8.475,45.596 19.052,58.421c2.09,2.535 2.398,4.758 1.776,7.343c-1.945,8.087 -6.262,25.474 -7.111,29.032c-1.117,4.686 -3.711,5.681 -8.561,3.424c-31.974,-14.884 -51.963,-61.627 -51.963,-99.174c0,-80.755 58.672,-154.915 169.148,-154.915c88.806,0 157.821,63.279 157.821,147.85c0,88.229 -55.629,159.232 -132.842,159.232c-25.94,0 -50.328,-13.476 -58.674,-29.394c0,0 -12.838,48.878 -15.95,60.856c-5.782,22.237 -21.382,50.109 -31.818,67.11c23.955,7.417 49.409,11.416 75.797,11.416c141.389,0 256.003,-114.612 256.003,-256.001c0,-141.381 -114.614,-255.998 -256.003,-255.998Z" style="fill-rule:nonzero;"/></g>
        </symbol>
        <symbol id="linkedin" viewBox="0 0 24 24">
            <g><path d="M8,19H5V9h3V19z M19,19h-3v-5.342c0-1.392-0.496-2.085-1.479-2.085c-0.779,0-1.273,0.388-1.521,1.165C13,14,13,19,13,19h-3   c0,0,0.04-9,0-10h2.368l0.183,2h0.062c0.615-1,1.598-1.678,2.946-1.678c1.025,0,1.854,0.285,2.487,1.001   C18.683,11.04,19,12.002,19,13.353V19z"/></g><g><ellipse cx="6.5" cy="6.5" rx="1.55" ry="1.5"/></g>
        </symbol>
        <symbol id="instagram" viewBox="0 0 56.693 56.693">
            <g><path d="M43.414,4.831H13c-5.283,0-9.581,4.297-9.581,9.58v10.12v20.295c0,5.283,4.298,9.58,9.581,9.58h30.415  c5.283,0,9.58-4.297,9.58-9.58V24.53v-10.12C52.994,9.127,48.697,4.831,43.414,4.831z M46.162,10.544l1.096-0.004v1.091v7.312  l-8.375,0.027l-0.029-8.402L46.162,10.544z M21.131,24.53c1.588-2.197,4.164-3.638,7.076-3.638s5.488,1.441,7.074,3.638  c1.033,1.434,1.652,3.188,1.652,5.088c0,4.811-3.918,8.725-8.727,8.725c-4.812,0-8.726-3.914-8.726-8.725  C19.481,27.718,20.098,25.964,21.131,24.53z M48.164,44.825c0,2.621-2.131,4.75-4.75,4.75H13c-2.62,0-4.751-2.129-4.751-4.75V24.53  h7.4c-0.639,1.572-0.998,3.289-0.998,5.088c0,7.473,6.08,13.557,13.556,13.557c7.475,0,13.555-6.084,13.555-13.557  c0-1.799-0.361-3.516-1-5.088h7.402V44.825z"/></g>
        </symbol>
         <symbol id="google" viewBox="0 0 56.693 56.693">
            <g><path d="M52.218,25.852h-7.512v-7.51c0-0.573-0.465-1.039-1.037-1.039H41.53c-0.576,0-1.041,0.466-1.041,1.039v7.51h-7.512   c-0.572,0-1.039,0.467-1.039,1.041v2.139c0,0.574,0.467,1.039,1.039,1.039h7.512v7.514c0,0.574,0.465,1.039,1.041,1.039h2.139   c0.572,0,1.037-0.465,1.037-1.039V30.07h7.512c0.572,0,1.039-0.465,1.039-1.039v-2.139C53.257,26.318,52.79,25.852,52.218,25.852z"/><path d="M26.974,32.438c-1.58-1.119-3.016-2.76-3.041-3.264c0-0.918,0.082-1.357,2.141-2.961c2.662-2.084,4.128-4.824,4.128-7.719   c0-2.625-0.802-4.957-2.167-6.595h1.059c0.219,0,0.434-0.068,0.609-0.196l2.955-2.141c0.367-0.263,0.521-0.732,0.381-1.161   c-0.141-0.428-0.537-0.72-0.988-0.72H18.835c-1.446,0-2.915,0.255-4.357,0.751c-4.816,1.661-8.184,5.765-8.184,9.978   c0,5.969,4.624,10.493,10.805,10.635c-0.121,0.473-0.182,0.939-0.182,1.396c0,0.92,0.233,1.791,0.713,2.633c-0.056,0-0.11,0-0.17,0   c-5.892,0-11.21,2.891-13.229,7.193c-0.526,1.119-0.794,2.25-0.794,3.367c0,1.086,0.279,2.131,0.826,3.113   c1.269,2.27,3.994,4.031,7.677,4.961c1.901,0.48,3.944,0.725,6.065,0.725c1.906,0,3.723-0.246,5.403-0.732   c5.238-1.521,8.625-5.377,8.625-9.828C32.032,37.602,30.659,35.045,26.974,32.438z M10.283,42.215c0-3.107,3.947-5.832,8.446-5.832   h0.121c0.979,0.012,1.934,0.156,2.834,0.432c0.309,0.213,0.607,0.416,0.893,0.611c2.084,1.42,3.461,2.357,3.844,3.861   c0.09,0.379,0.135,0.758,0.135,1.125c0,3.869-2.885,5.83-8.578,5.83C13.663,48.242,10.283,45.596,10.283,42.215z M14.377,12.858   c0.703-0.803,1.624-1.227,2.658-1.227l0.117,0.002c2.921,0.086,5.716,3.341,6.23,7.256c0.289,2.192-0.199,4.253-1.301,5.509   c-0.705,0.805-1.613,1.229-2.689,1.229c0,0,0,0-0.002,0h-0.047c-2.861-0.088-5.716-3.467-6.227-7.377   C12.829,16.064,13.289,14.099,14.377,12.858z"/></g>
        </symbol>
</svg>